<svg xmlns="http://www.w3.org/2000/svg" xmlns:se="http://svg-edit.googlecode.com" xmlns:xlink="http://www.w3.org/1999/xlink" xmlns:dc="http://purl.org/dc/elements/1.1/" xmlns:cc="http://creativecommons.org/ns#" xmlns:rdf="http://www.w3.org/1999/02/22-rdf-syntax-ns#" xmlns:inkscape="http://www.inkscape.org/namespaces/inkscape" width="777" height="480" style="">                                    <title>my vector image</title>                                    <!-- Created with Vector Paint - http://www.vectorpaint.yaks.com/ https://chrome.google.com/webstore/detail/hnbpdiengicdefcjecjbnjnoifekhgdo -->                                    <rect id="backgroundrect" width="100%" height="100%" x="0" y="0" fill="#FFFFFF" stroke="none"/>                                <g class="currentLayer" style=""><title>Layer 1</title><path fill="#1aebeb" fill-opacity="1" stroke="#222222" stroke-opacity="1" stroke-width="2" stroke-dasharray="none" stroke-linejoin="round" stroke-linecap="butt" stroke-dashoffset="" fill-rule="nonzero" opacity="1" marker-start="" marker-mid="" marker-end="" d="M60.85714316368103,344.9285715818405 C60.85714316368103,339.1274666094648 125.29913211395727,334.4285715818405 204.85714316368103,334.4285715818405 C284.4151542134048,334.4285715818405 348.85714316368103,339.1274666094648 348.85714316368103,344.9285715818405 C348.85714316368103,350.7296765542162 284.4151542134048,355.4285715818405 204.85714316368103,355.4285715818405 C125.29913211395727,355.4285715818405 60.85714316368103,350.7296765542162 60.85714316368103,344.9285715818405 z" id="svg_1" class=""/><path fill="#1aebeb" fill-opacity="1" stroke="#222222" stroke-opacity="1" stroke-width="2" stroke-dasharray="none" stroke-linejoin="round" stroke-linecap="butt" stroke-dashoffset="" fill-rule="nonzero" opacity="1" marker-start="" marker-mid="" marker-end="" d="M348.000004529953,346.357142329216 C348.000004529953,340.5560373568403 412.44199348022926,335.857142329216 492.000004529953,335.857142329216 C571.5580155796767,335.857142329216 636.000004529953,340.5560373568403 636.000004529953,346.357142329216 C636.000004529953,352.1582473015917 571.5580155796767,356.857142329216 492.000004529953,356.857142329216 C412.44199348022926,356.857142329216 348.000004529953,352.1582473015917 348.000004529953,346.357142329216 z" class="" id="svg_6"/><path fill="#4a90d6" fill-opacity="1" stroke="#222222" stroke-opacity="1" stroke-width="2" stroke-dasharray="none" stroke-linejoin="round" stroke-linecap="butt" stroke-dashoffset="" fill-rule="nonzero" opacity="1" marker-start="" marker-mid="" marker-end="" d="M211.7976251791564,293.5760315580284 C211.7976251791564,220.38115345009334 215.8252494885486,161.09330218266598 220.7976251791564,161.09330218266598 C225.7700008697642,161.09330218266598 229.7976251791564,220.38115345009334 229.7976251791564,293.5760315580284 C229.7976251791564,366.7709096659634 225.7700008697642,426.0587609333908 220.7976251791564,426.0587609333908 C215.8252494885486,426.0587609333908 211.7976251791564,366.7709096659634 211.7976251791564,293.5760315580284 z" id="svg_3" class="" transform="rotate(-69.27005767822266 220.79762268066406,293.5760498046875) "/><path fill="#4a90d6" fill-opacity="1" stroke="#222222" stroke-opacity="1" stroke-width="2" stroke-dasharray="none" stroke-linejoin="round" stroke-linecap="butt" stroke-dashoffset="" fill-rule="nonzero" opacity="1" marker-start="" marker-mid="" marker-end="" d="M455.5388945050464,291.45951055149385 C455.5388945050464,219.32753037331284 459.5665188144386,160.90062642898624 464.5388945050464,160.90062642898624 C469.5112701956542,160.90062642898624 473.5388945050464,219.32753037331284 473.5388945050464,291.45951055149385 C473.5388945050464,363.59149072967483 469.5112701956542,422.01839467400146 464.5388945050464,422.01839467400146 C459.5665188144386,422.01839467400146 455.5388945050464,363.59149072967483 455.5388945050464,291.45951055149385 z" class="" transform="rotate(65.9874267578125 464.5389099121093,291.4595336914063) " id="svg_7"/><path fill="#1aebeb" fill-opacity="1" stroke="#222222" stroke-opacity="1" stroke-width="2" stroke-dasharray="none" stroke-linejoin="round" stroke-linecap="butt" stroke-dashoffset="" fill-rule="nonzero" opacity="1" marker-start="" marker-mid="" marker-end="" d="M246.67014329543616,256.47433944208797 C246.67014329543616,188.45705624482196 252.4878228534472,133.36305685503658 259.67014329543616,133.36305685503658 C266.8524637374251,133.36305685503658 272.67014329543616,188.45705624482196 272.67014329543616,256.47433944208797 C272.67014329543616,324.4916226393539 266.8524637374251,379.58562202913936 259.67014329543616,379.58562202913936 C252.4878228534472,379.58562202913936 246.67014329543616,324.4916226393539 246.67014329543616,256.47433944208797 z" id="svg_4" class="" transform="rotate(-46.53106689453125 259.6701354980468,256.4743347167968) "/><path fill="#0bd5d5" fill-opacity="1" stroke="#222222" stroke-opacity="1" stroke-width="2" stroke-dasharray="none" stroke-linejoin="round" stroke-linecap="butt" stroke-dashoffset="" fill-rule="nonzero" opacity="1" marker-start="" marker-mid="" marker-end="" d="M410.9558557759812,245.76005275709804 C410.9558557759812,177.74276955983203 416.77353533399224,122.64877017004665 423.9558557759812,122.64877017004665 C431.13817621797017,122.64877017004665 436.9558557759812,177.74276955983203 436.9558557759812,245.76005275709804 C436.9558557759812,313.777335954364 431.13817621797017,368.87133534414943 423.9558557759812,368.87133534414943 C416.77353533399224,368.87133534414943 410.9558557759812,313.777335954364 410.9558557759812,245.76005275709804 z" class="" transform="rotate(38.05252456665039 423.95584106445295,245.76004028320315) " id="svg_8"/><path fill="#0404b8" fill-opacity="1" stroke="#0b0bd5" stroke-opacity="1" stroke-width="2" stroke-dasharray="none" stroke-linejoin="round" stroke-linecap="butt" stroke-dashoffset="" fill-rule="nonzero" opacity="1" marker-start="" marker-mid="" marker-end="" d="M274.5714272260666,203.5 C274.5714272260666,165.1022099447514 303.340172578946,134 338.85714215040207,134 C374.3741117218581,134 403.14285707473755,165.1022099447514 403.14285707473755,203.5 C403.14285707473755,241.8977900552486 374.3741117218581,273 338.85714215040207,273 C303.340172578946,273 274.5714272260666,241.8977900552486 274.5714272260666,203.5 z" id="svg_9" class=""/><path fill="#4a90d6" fill-opacity="1" stroke="#222222" stroke-opacity="1" stroke-width="2" stroke-dasharray="none" stroke-linejoin="round" stroke-linecap="butt" stroke-dashoffset="" fill-rule="nonzero" opacity="1" marker-start="" marker-mid="" marker-end="" d="M308,199 C308,199 308,199 308,199 C308,199 308,199 308,199 C308,199 308,199 308,199 C308,199 308,199 308,199 Z" id="svg_11"/></g></svg>
